<?xml version="1.0" standalone="no"?>
<!DOCTYPE svg PUBLIC "-//W3C//DTD SVG 20010904//EN"
 "http://www.w3.org/TR/2001/REC-SVG-20010904/DTD/svg10.dtd">
<svg version="1.0" xmlns="http://www.w3.org/2000/svg"
 width="834.000000pt" height="834.000000pt" viewBox="0 0 834.000000 834.000000"
 preserveAspectRatio="xMidYMid meet">
<metadata>
Created by potrace 1.14, written by Peter Selinger 2001-2017
</metadata>
<g transform="translate(0.000000,834.000000) scale(0.100000,-0.100000)"
fill="#000000" stroke="none">
<path d="M398 8325 c-169 -42 -301 -159 -369 -330 l-24 -60 -3 -3735 c-2
-3703 -2 -3736 18 -3814 23 -93 56 -152 123 -223 59 -62 122 -105 203 -135
l59 -23 3765 0 3765 0 59 23 c154 58 270 178 322 332 18 53 19 174 19 3810 0
3636 -1 3757 -19 3810 -52 154 -162 267 -321 331 l-60 24 -3740 2 c-3163 1
-3749 -1 -3797 -12z m2706 -1501 c191 -49 344 -207 391 -405 69 -293 -123
-591 -420 -654 -88 -18 -132 -18 -220 0 -187 39 -343 173 -407 350 -26 73 -35
217 -19 297 40 191 202 361 394 413 71 19 206 18 281 -1z m2260 -363 c643
-133 1153 -610 1316 -1232 98 -373 71 -752 -80 -1104 -165 -388 -495 -722
-874 -887 -39 -16 -76 -35 -82 -42 -6 -6 -16 -38 -23 -71 -41 -201 -166 -495
-290 -680 -410 -614 -1098 -952 -1836 -904 -719 47 -1367 484 -1685 1134 -231
474 -269 1025 -104 1523 41 126 141 336 209 442 258 402 635 698 1077 845 128
42 335 91 345 81 3 -3 -14 -51 -37 -108 -24 -57 -55 -152 -70 -212 l-28 -109
-93 -33 c-424 -152 -753 -444 -944 -839 -218 -452 -215 -973 8 -1420 401 -807
1377 -1140 2181 -744 314 155 590 428 745 737 27 53 86 198 94 232 l6 25 -172
0 c-186 1 -261 11 -432 55 -552 144 -997 564 -1179 1110 -187 565 -63 1186
329 1642 72 85 204 204 291 264 l55 38 26 -32 c36 -47 91 -72 159 -72 136 0
221 116 190 257 -7 30 -5 34 21 44 54 21 212 60 300 74 128 21 445 13 577 -14z"/>
<path d="M2866 6574 c-69 -22 -157 -110 -181 -183 -79 -238 170 -463 397 -358
223 102 231 414 14 524 -64 33 -160 40 -230 17z"/>
<path d="M4452 5870 c-37 -23 -72 -75 -72 -108 0 -70 62 -132 133 -132 139 0
179 193 51 246 -45 19 -73 17 -112 -6z"/>
<path d="M4987 5672 c-37 -41 -7 -104 50 -104 29 0 63 33 63 61 0 9 -7 27 -16
39 -19 28 -74 30 -97 4z"/>
<path d="M3831 5406 c-10 -12 51 -131 359 -698 205 -376 383 -700 396 -720 14
-22 29 -35 37 -32 8 3 85 102 172 220 127 173 163 214 179 212 15 -2 33 -27
64 -92 24 -48 45 -86 48 -83 3 2 2 88 -2 191 l-7 187 -243 166 c-134 92 -242
168 -240 170 2 2 139 -39 305 -91 166 -53 305 -96 309 -96 17 0 377 332 380
350 2 13 -4 21 -20 25 -13 3 -394 70 -848 150 -454 80 -837 147 -851 150 -16
4 -30 0 -38 -9z"/>
<path d="M5305 4311 c-53 -24 -90 -63 -111 -116 -19 -50 -18 -56 24 -217 44
-170 56 -282 49 -476 -5 -150 -24 -283 -52 -373 -7 -22 -7 -22 61 -16 71 7
265 54 326 80 l34 14 14 104 c18 135 16 395 -4 531 -16 114 -44 233 -77 335
-40 123 -158 183 -264 134z"/>
</g>
</svg>
